<?xml version="1.0" encoding="UTF-8" standalone="no"?><svg xmlns="http://www.w3.org/2000/svg" version="1.1" width="1536" height="1024" viewBox="0 0 3072 2048">
<rect width="3072" height="2048" fill="#000000"/>
<g id="color_1" fill="#E1E2E2" stroke="#E1E2E2" stroke-width="2.0" stroke-linejoin="round" vector-effect="non-scaling-stroke">
<path d="M1160.00,1508.00 L1170.00,1515.00 L1179.00,1517.00 L1160.00,1508.00 Z M2103.00,1306.00 L2099.00,1298.00 L2091.00,1292.00 L1974.00,1296.00 L1962.00,1304.00 L1958.00,1319.00 L2091.00,1319.00 L2094.00,1313.00 L2103.00,1313.00 L2103.00,1306.00 Z M1521.00,1132.00 L1489.00,1144.00 L1470.00,1146.00 L1468.00,1152.00 L1470.00,1631.00 L1521.00,1631.00 L1521.00,1132.00 Z M1956.00,1143.00 L2091.00,1145.00 L2094.00,1139.00 L2101.00,1139.00 L2103.00,1134.00 L2093.00,1120.00 L2081.00,1116.00 L2010.00,1116.00 L1970.00,1120.00 L1960.00,1128.00 L1956.00,1143.00 Z M1956.00,758.00 L1958.00,767.00 L2091.00,767.00 L2094.00,759.00 L2103.00,759.00 L2103.00,754.00 L2093.00,740.00 L2083.00,736.00 L2012.00,736.00 L1970.00,740.00 L1960.00,748.00 L1956.00,758.00 Z M1348.00,664.00 L1332.00,670.00 L1320.00,682.00 L1314.00,696.00 L1314.00,1253.00 L1320.00,1267.00 L1342.00,1283.00 L1413.00,1283.00 L1423.00,1271.00 L1423.00,1144.00 L1417.00,1135.00 L1415.00,1110.00 L1388.00,1094.00 L1363.00,1069.00 L1345.00,1037.00 L1335.00,1003.00 L1333.00,970.00 L1337.00,942.00 L1345.00,918.00 L1357.00,896.00 L1365.00,891.00 L1366.00,897.00 L1350.00,928.00 L1344.00,956.00 L1346.00,1003.00 L1354.00,1031.00 L1364.00,1051.00 L1384.00,1075.00 L1406.00,1093.00 L1420.00,1099.00 L1423.00,1098.00 L1411.00,1087.00 L1414.00,1081.00 L1437.00,1087.00 L1440.00,1073.00 L1469.00,1075.00 L1469.00,1072.00 L1452.00,1068.00 L1434.00,1058.00 L1413.00,1037.00 L1399.00,1011.00 L1395.00,997.00 L1391.00,946.00 L1403.00,920.00 L1428.00,893.00 L1453.00,879.00 L1453.00,860.00 L1450.00,858.00 L1432.00,864.00 L1425.00,848.00 L1409.00,854.00 L1403.00,853.00 L1410.00,845.00 L1423.00,839.00 L1421.00,672.00 L1409.00,664.00 L1348.00,664.00 Z M1394.00,864.00 L1389.00,870.00 L1381.00,873.00 L1384.00,865.00 L1394.00,864.00 Z M1956.00,591.00 L1958.00,595.00 L2014.00,597.00 L2091.00,595.00 L2096.00,587.00 L2103.00,587.00 L2103.00,582.00 L2093.00,568.00 L2079.00,564.00 L1984.00,564.00 L1964.00,572.00 L1956.00,591.00 Z M1468.00,312.00 L1468.00,877.00 L1501.00,877.00 L1521.00,883.00 L1521.00,312.00 L1468.00,312.00 Z"/>
</g>
<g id="color_2" fill="#4475AB" stroke="#4475AB" stroke-width="2.0" stroke-linejoin="round" vector-effect="non-scaling-stroke">
<path d="M1054.00,1366.00 L1090.00,1405.00 L1114.00,1425.00 L1158.00,1453.00 L1210.00,1479.00 L1246.00,1491.00 L1293.00,1497.00 L1281.00,1490.00 L1270.00,1492.00 L1254.00,1484.00 L1254.00,1481.00 L1265.00,1481.00 L1278.00,1487.00 L1325.00,1489.00 L1345.00,1481.00 L1355.00,1473.00 L1331.00,1482.00 L1294.00,1482.00 L1254.00,1474.00 L1224.00,1464.00 L1168.00,1438.00 L1131.00,1412.00 L1128.00,1412.00 L1125.00,1418.00 L1114.00,1416.00 L1109.00,1410.00 L1090.00,1400.00 L1071.00,1378.00 L1064.00,1376.00 L1054.00,1366.00 Z M1149.00,1436.00 L1163.00,1437.00 L1166.00,1443.00 L1160.00,1446.00 L1149.00,1436.00 Z M1956.00,1310.00 L1956.00,1327.00 L1978.00,1329.00 L2089.00,1327.00 L2094.00,1321.00 L2101.00,1325.00 L2105.00,1319.00 L2105.00,1308.00 L2103.00,1314.00 L2094.00,1314.00 L2091.00,1320.00 L1972.00,1322.00 L1957.00,1319.00 L1961.00,1304.00 L1974.00,1295.00 L2091.00,1291.00 L2099.00,1297.00 L2095.00,1292.00 L2085.00,1288.00 L2016.00,1288.00 L2009.00,1292.00 L1976.00,1292.00 L1966.00,1296.00 L1956.00,1310.00 Z M914.00,1262.00 L942.00,1317.00 L994.00,1387.00 L1066.00,1455.00 L1126.00,1495.00 L1198.00,1529.00 L1278.00,1549.00 L1329.00,1553.00 L1328.00,1549.00 L1336.00,1547.00 L1411.00,1545.00 L1403.00,1542.00 L1332.00,1540.00 L1266.00,1530.00 L1202.00,1512.00 L1130.00,1478.00 L1066.00,1434.00 L1015.00,1385.00 L991.00,1356.00 L1000.00,1379.00 L996.00,1380.00 L957.00,1333.00 L914.00,1262.00 Z M1161.00,1510.00 L1167.00,1509.00 L1176.00,1515.00 L1170.00,1516.00 L1161.00,1510.00 Z M1010.00,1391.00 L1038.00,1416.00 L1042.00,1422.00 L1041.00,1426.00 L1011.00,1399.00 L1010.00,1391.00 Z M2105.00,1136.00 L2101.00,1140.00 L2094.00,1140.00 L2091.00,1146.00 L1956.00,1144.00 L1956.00,1149.00 L1960.00,1155.00 L2085.00,1155.00 L2094.00,1147.00 L2101.00,1151.00 L2105.00,1145.00 L2105.00,1136.00 Z M1521.00,1126.00 L1511.00,1132.00 L1501.00,1128.00 L1485.00,1132.00 L1470.00,1130.00 L1468.00,1151.00 L1470.00,1145.00 L1489.00,1143.00 L1518.00,1131.00 L1522.00,1132.00 L1522.00,1631.00 L1468.00,1630.00 L1468.00,1639.00 L1523.00,1637.00 L1521.00,1126.00 Z M1956.00,1139.00 L1959.00,1128.00 L1970.00,1119.00 L2010.00,1115.00 L2081.00,1115.00 L2093.00,1119.00 L2100.00,1126.00 L2102.00,1133.00 L2103.00,1130.00 L2093.00,1118.00 L2083.00,1114.00 L1974.00,1116.00 L1958.00,1128.00 L1956.00,1139.00 Z M1094.00,1010.00 L1080.00,1018.00 L1068.00,1036.00 L1068.00,1081.00 L1076.00,1095.00 L1094.00,1107.00 L1137.00,1107.00 L1153.00,1097.00 L1159.00,1089.00 L1159.00,1054.00 L1118.00,1054.00 L1116.00,1067.00 L1126.00,1071.00 L1137.00,1071.00 L1138.00,1081.00 L1127.00,1090.00 L1106.00,1090.00 L1093.00,1079.00 L1089.00,1071.00 L1089.00,1048.00 L1095.00,1034.00 L1106.00,1027.00 L1125.00,1027.00 L1133.00,1031.00 L1138.00,1039.00 L1155.00,1035.00 L1157.00,1032.00 L1149.00,1018.00 L1131.00,1008.00 L1094.00,1010.00 Z M964.00,1008.00 L962.00,1105.00 L983.00,1109.00 L987.00,1105.00 L985.00,1082.00 L998.00,1067.00 L1001.00,1067.00 L1030.00,1107.00 L1055.00,1107.00 L1017.00,1053.00 L1019.00,1046.00 L1053.00,1010.00 L1024.00,1010.00 L988.00,1050.00 L985.00,1008.00 L964.00,1008.00 Z M1674.00,894.00 L1690.00,897.00 L1943.00,895.00 L1939.00,892.00 L1674.00,894.00 Z M1468.00,878.00 L1468.00,883.00 L1499.00,883.00 L1520.00,891.00 L1523.00,882.00 L1516.00,884.00 L1501.00,878.00 L1468.00,878.00 Z M1393.00,864.00 L1384.00,866.00 L1382.00,873.00 L1393.00,864.00 Z M1455.00,858.00 L1452.00,858.00 L1454.00,879.00 L1428.00,894.00 L1408.00,914.00 L1394.00,940.00 L1394.00,983.00 L1395.00,964.00 L1403.00,936.00 L1419.00,913.00 L1417.00,908.00 L1432.00,893.00 L1453.00,883.00 L1455.00,858.00 Z M1428.00,854.00 L1432.00,863.00 L1449.00,859.00 L1432.00,862.00 L1428.00,854.00 Z M1110.00,848.00 L1090.00,856.00 L1078.00,870.00 L1072.00,886.00 L1070.00,925.00 L1076.00,951.00 L1086.00,965.00 L1104.00,975.00 L1125.00,977.00 L1147.00,969.00 L1161.00,953.00 L1167.00,935.00 L1167.00,890.00 L1159.00,868.00 L1145.00,854.00 L1127.00,848.00 L1110.00,848.00 Z M1112.00,871.00 L1131.00,873.00 L1142.00,892.00 L1142.00,933.00 L1136.00,947.00 L1127.00,954.00 L1108.00,952.00 L1101.00,945.00 L1097.00,933.00 L1097.00,890.00 L1101.00,880.00 L1112.00,871.00 Z M978.00,854.00 L966.00,866.00 L960.00,887.00 L983.00,889.00 L989.00,876.00 L996.00,871.00 L1013.00,871.00 L1022.00,878.00 L1024.00,891.00 L1018.00,903.00 L962.00,954.00 L962.00,973.00 L1051.00,975.00 L1051.00,952.00 L999.00,951.00 L1043.00,911.00 L1047.00,903.00 L1049.00,874.00 L1043.00,862.00 L1033.00,854.00 L1015.00,848.00 L996.00,848.00 L978.00,854.00 Z M2105.00,754.00 L2093.00,738.00 L2084.00,736.00 L2093.00,739.00 L2104.00,754.00 L2104.00,759.00 L2094.00,760.00 L2091.00,768.00 L1958.00,768.00 L1956.00,760.00 L1956.00,769.00 L1960.00,775.00 L2087.00,775.00 L2094.00,769.00 L2101.00,771.00 L2105.00,767.00 L2105.00,754.00 Z M1960.00,747.00 L1976.00,737.00 L2011.00,736.00 L1976.00,736.00 L1966.00,740.00 L1960.00,747.00 Z M972.00,698.00 L972.00,711.00 L982.00,735.00 L990.00,747.00 L1007.00,761.00 L1005.00,754.00 L985.00,733.00 L972.00,698.00 Z M988.00,696.00 L988.00,713.00 L996.00,729.00 L1020.00,753.00 L1054.00,765.00 L1085.00,763.00 L1101.00,757.00 L1062.00,760.00 L1030.00,750.00 L1007.00,731.00 L997.00,717.00 L988.00,696.00 Z M1425.00,678.00 L1424.00,839.00 L1410.00,846.00 L1404.00,853.00 L1425.00,847.00 L1427.00,851.00 L1425.00,678.00 Z M1331.00,670.00 L1318.00,682.00 L1316.00,689.00 L1331.00,670.00 Z M1550.00,662.00 L1548.00,879.00 L1544.00,880.00 L1536.00,874.00 L1536.00,897.00 L1552.00,910.00 L1564.00,928.00 L1562.00,931.00 L1570.00,954.00 L1570.00,993.00 L1566.00,1007.00 L1548.00,1039.00 L1527.00,1058.00 L1511.00,1066.00 L1487.00,1072.00 L1458.00,1068.00 L1469.00,1071.00 L1469.00,1076.00 L1440.00,1074.00 L1437.00,1088.00 L1414.00,1082.00 L1412.00,1087.00 L1424.00,1098.00 L1423.00,1100.00 L1406.00,1094.00 L1384.00,1076.00 L1367.00,1057.00 L1353.00,1031.00 L1345.00,1003.00 L1343.00,956.00 L1349.00,928.00 L1365.00,897.00 L1365.00,892.00 L1358.00,896.00 L1346.00,918.00 L1338.00,942.00 L1334.00,970.00 L1336.00,1003.00 L1346.00,1037.00 L1364.00,1069.00 L1388.00,1093.00 L1416.00,1110.00 L1418.00,1135.00 L1424.00,1144.00 L1424.00,1271.00 L1413.00,1284.00 L1342.00,1284.00 L1319.00,1267.00 L1315.00,1254.00 L1318.00,1269.00 L1328.00,1279.00 L1342.00,1285.00 L1417.00,1283.00 L1425.00,1271.00 L1425.00,1134.00 L1421.00,1110.00 L1411.00,1102.00 L1423.00,1103.00 L1425.00,1096.00 L1420.00,1094.00 L1415.00,1086.00 L1421.00,1085.00 L1452.00,1097.00 L1495.00,1097.00 L1523.00,1085.00 L1542.00,1067.00 L1549.00,1067.00 L1552.00,1070.00 L1552.00,1093.00 L1548.00,1094.00 L1548.00,1285.00 L1552.00,1289.00 L1875.00,1287.00 L1877.00,1208.00 L1869.00,1202.00 L1664.00,1204.00 L1649.00,1197.00 L1645.00,1189.00 L1645.00,686.00 L1641.00,676.00 L1623.00,662.00 L1550.00,662.00 Z M1658.00,654.00 L1662.00,657.00 L1883.00,655.00 L1658.00,654.00 Z M2105.00,584.00 L2101.00,590.00 L2096.00,588.00 L2091.00,596.00 L2014.00,598.00 L1958.00,596.00 L1956.00,592.00 L1956.00,599.00 L1960.00,603.00 L2087.00,603.00 L2094.00,597.00 L2103.00,597.00 L2105.00,584.00 Z M1983.00,564.00 L1970.00,566.00 L1962.00,573.00 L1970.00,567.00 L1983.00,564.00 Z M1397.00,522.00 L1392.00,518.00 L1388.00,537.00 L1382.00,547.00 L1351.00,578.00 L1315.00,598.00 L1285.00,610.00 L1250.00,618.00 L1224.00,630.00 L1190.00,660.00 L1172.00,689.00 L1179.00,689.00 L1208.00,657.00 L1222.00,647.00 L1309.00,621.00 L1333.00,607.00 L1379.00,567.00 L1389.00,551.00 L1391.00,536.00 L1397.00,522.00 Z M1538.00,480.00 L1538.00,483.00 L1606.00,485.00 L1929.00,485.00 L1954.00,502.00 L1965.00,525.00 L1955.00,498.00 L1943.00,486.00 L1921.00,478.00 L1538.00,480.00 Z M1606.00,322.00 L1610.00,349.00 L1612.00,335.00 L1618.00,339.00 L1636.00,335.00 L1869.00,335.00 L1877.00,337.00 L1878.00,341.00 L1907.00,343.00 L1913.00,337.00 L1912.00,347.00 L1922.00,355.00 L1945.00,359.00 L1952.00,351.00 L1959.00,353.00 L1966.00,360.00 L1962.00,368.00 L1962.00,373.00 L1966.00,377.00 L1981.00,377.00 L1992.00,393.00 L1999.00,391.00 L2007.00,399.00 L1997.00,374.00 L1973.00,346.00 L1947.00,330.00 L1921.00,322.00 L1606.00,322.00 Z M1538.00,322.00 L1538.00,335.00 L1590.00,336.00 L1593.00,451.00 L1595.00,324.00 L1569.00,320.00 L1538.00,322.00 Z M1447.00,314.00 L1352.00,314.00 L1286.00,324.00 L1240.00,336.00 L1172.00,362.00 L1120.00,388.00 L1070.00,420.00 L1064.00,426.00 L1066.00,437.00 L998.00,490.00 L978.00,510.00 L972.00,521.00 L950.00,544.00 L942.00,559.00 L926.00,576.00 L884.00,646.00 L884.00,651.00 L868.00,680.00 L864.00,695.00 L848.00,728.00 L840.00,759.00 L859.00,710.00 L883.00,660.00 L935.00,576.00 L975.00,526.00 L1038.00,463.00 L1072.00,435.00 L1132.00,397.00 L1184.00,371.00 L1195.00,369.00 L1226.00,355.00 L1290.00,337.00 L1346.00,327.00 L1447.00,323.00 L1447.00,314.00 Z M1468.00,310.00 L1522.00,312.00 L1523.00,867.00 L1523.00,310.00 L1468.00,310.00 Z"/>
</g>
<g id="color_3" fill="#24292C" stroke="#24292C" stroke-width="2.0" stroke-linejoin="round" vector-effect="non-scaling-stroke">
<path d="M1453.00,1632.00 L1450.00,1630.00 L1448.00,1635.00 L1453.00,1632.00 Z M1150.00,1436.00 L1160.00,1445.00 L1165.00,1443.00 L1163.00,1438.00 L1150.00,1436.00 Z M1010.00,1392.00 L1012.00,1399.00 L1041.00,1425.00 L1037.00,1416.00 L1010.00,1392.00 Z M1536.00,1296.00 L1536.00,1593.00 L1593.00,1595.00 L1595.00,1304.00 L1582.00,1302.00 L1554.00,1306.00 L1536.00,1296.00 Z M1850.00,1200.00 L1869.00,1201.00 L1878.00,1208.00 L1879.00,1283.00 L1879.00,1208.00 L1869.00,1200.00 L1850.00,1200.00 Z M1648.00,1192.00 L1652.00,1199.00 L1661.00,1201.00 L1656.00,1200.00 L1648.00,1192.00 Z M1954.00,1132.00 L1956.00,1155.00 L1974.00,1169.00 L2011.00,1169.00 L2018.00,1173.00 L2083.00,1173.00 L2099.00,1163.00 L2107.00,1147.00 L2103.00,1120.00 L2083.00,1112.00 L1972.00,1114.00 L1964.00,1118.00 L1954.00,1132.00 Z M1955.00,1132.00 L1968.00,1117.00 L1974.00,1115.00 L2083.00,1113.00 L2093.00,1117.00 L2102.00,1126.00 L2106.00,1145.00 L2101.00,1152.00 L2094.00,1148.00 L2085.00,1156.00 L1960.00,1156.00 L1955.00,1149.00 L1955.00,1132.00 Z M1521.00,1104.00 L1503.00,1112.00 L1466.00,1116.00 L1468.00,1641.00 L1525.00,1639.00 L1525.00,1126.00 L1521.00,1104.00 Z M1521.00,1125.00 L1524.00,1130.00 L1524.00,1637.00 L1521.00,1640.00 L1468.00,1640.00 L1467.00,1142.00 L1470.00,1129.00 L1485.00,1131.00 L1501.00,1127.00 L1511.00,1131.00 L1521.00,1125.00 Z M798.00,1100.00 L810.00,1165.00 L838.00,1249.00 L854.00,1278.00 L856.00,1289.00 L868.00,1313.00 L878.00,1324.00 L892.00,1353.00 L912.00,1378.00 L920.00,1393.00 L944.00,1420.00 L958.00,1441.00 L1024.00,1503.00 L1100.00,1557.00 L1136.00,1575.00 L1141.00,1575.00 L1109.00,1552.00 L1090.00,1544.00 L1067.00,1522.00 L1044.00,1510.00 L1031.00,1494.00 L1014.00,1484.00 L1007.00,1474.00 L975.00,1445.00 L947.00,1408.00 L933.00,1395.00 L929.00,1386.00 L915.00,1373.00 L901.00,1346.00 L881.00,1323.00 L877.00,1306.00 L855.00,1271.00 L837.00,1220.00 L829.00,1207.00 L827.00,1192.00 L813.00,1153.00 L811.00,1132.00 L801.00,1107.00 L801.00,1100.00 L798.00,1100.00 Z M1404.00,1014.00 L1420.00,1043.00 L1441.00,1059.00 L1415.00,1035.00 L1404.00,1014.00 Z M1112.00,872.00 L1102.00,880.00 L1098.00,890.00 L1098.00,933.00 L1102.00,945.00 L1108.00,951.00 L1127.00,953.00 L1135.00,947.00 L1141.00,933.00 L1141.00,892.00 L1131.00,874.00 L1112.00,872.00 Z M1312.00,804.00 L1312.00,1259.00 L1324.00,1279.00 L1340.00,1287.00 L1417.00,1285.00 L1427.00,1271.00 L1427.00,1098.00 L1437.00,1097.00 L1464.00,1105.00 L1495.00,1103.00 L1533.00,1087.00 L1543.00,1077.00 L1546.00,1080.00 L1546.00,1287.00 L1550.00,1291.00 L1873.00,1291.00 L1877.00,1287.00 L1863.00,1290.00 L1552.00,1290.00 L1547.00,1285.00 L1547.00,1094.00 L1551.00,1093.00 L1549.00,1068.00 L1542.00,1068.00 L1523.00,1086.00 L1495.00,1098.00 L1452.00,1098.00 L1416.00,1086.00 L1416.00,1089.00 L1426.00,1096.00 L1423.00,1104.00 L1412.00,1102.00 L1422.00,1110.00 L1426.00,1134.00 L1426.00,1271.00 L1422.00,1279.00 L1413.00,1286.00 L1342.00,1286.00 L1328.00,1280.00 L1317.00,1269.00 L1313.00,1259.00 L1312.00,804.00 Z M915.00,714.00 L912.00,714.00 L908.00,727.00 L913.00,725.00 L911.00,718.00 L915.00,717.00 L915.00,714.00 Z M1445.00,712.00 L1438.00,712.00 L1438.00,737.00 L1441.00,726.00 L1449.00,719.00 L1445.00,712.00 Z M1443.00,696.00 L1438.00,696.00 L1438.00,707.00 L1445.00,701.00 L1443.00,696.00 Z M1624.00,662.00 L1642.00,676.00 L1646.00,686.00 L1647.00,1189.00 L1647.00,686.00 L1639.00,670.00 L1624.00,662.00 Z M1342.00,662.00 L1324.00,672.00 L1312.00,692.00 L1312.00,761.00 L1313.00,692.00 L1317.00,682.00 L1330.00,669.00 L1342.00,663.00 L1413.00,663.00 L1422.00,670.00 L1426.00,678.00 L1426.00,847.00 L1432.00,861.00 L1444.00,857.00 L1456.00,858.00 L1456.00,879.00 L1451.00,886.00 L1432.00,894.00 L1418.00,908.00 L1420.00,913.00 L1408.00,928.00 L1400.00,946.00 L1396.00,964.00 L1397.00,989.00 L1399.00,956.00 L1411.00,926.00 L1434.00,901.00 L1455.00,891.00 L1457.00,858.00 L1444.00,856.00 L1434.00,860.00 L1427.00,847.00 L1427.00,678.00 L1425.00,672.00 L1413.00,662.00 L1342.00,662.00 Z M1555.00,660.00 L1550.00,660.00 L1546.00,664.00 L1544.00,704.00 L1546.00,877.00 L1539.00,872.00 L1534.00,874.00 L1532.00,901.00 L1548.00,914.00 L1560.00,932.00 L1568.00,960.00 L1568.00,991.00 L1564.00,1007.00 L1552.00,1031.00 L1523.00,1058.00 L1490.00,1069.00 L1511.00,1065.00 L1537.00,1049.00 L1559.00,1021.00 L1569.00,993.00 L1569.00,954.00 L1561.00,931.00 L1563.00,928.00 L1551.00,910.00 L1535.00,897.00 L1535.00,874.00 L1547.00,879.00 L1547.00,664.00 L1555.00,660.00 Z M1441.00,400.00 L1428.00,400.00 L1429.00,406.00 L1413.00,402.00 L1408.00,404.00 L1407.00,400.00 L1398.00,400.00 L1404.00,404.00 L1403.00,406.00 L1380.00,406.00 L1369.00,410.00 L1320.00,414.00 L1266.00,426.00 L1186.00,456.00 L1138.00,482.00 L1123.00,494.00 L1108.00,498.00 L1097.00,512.00 L1062.00,538.00 L1018.00,582.00 L1009.00,596.00 L996.00,604.00 L996.00,613.00 L988.00,620.00 L970.00,653.00 L962.00,662.00 L946.00,692.00 L946.00,699.00 L940.00,711.00 L928.00,724.00 L926.00,733.00 L932.00,738.00 L932.00,747.00 L914.00,778.00 L918.00,783.00 L910.00,802.00 L910.00,813.00 L896.00,860.00 L888.00,936.00 L888.00,997.00 L898.00,1081.00 L928.00,1191.00 L968.00,1278.00 L960.00,1279.00 L964.00,1285.00 L971.00,1285.00 L978.00,1292.00 L988.00,1308.00 L987.00,1314.00 L980.00,1314.00 L982.00,1321.00 L1000.00,1332.00 L998.00,1341.00 L1006.00,1351.00 L1013.00,1351.00 L1024.00,1362.00 L1026.00,1375.00 L1037.00,1381.00 L1054.00,1401.00 L1065.00,1405.00 L1084.00,1425.00 L1095.00,1429.00 L1098.00,1437.00 L1106.00,1445.00 L1143.00,1457.00 L1150.00,1467.00 L1166.00,1475.00 L1173.00,1475.00 L1196.00,1489.00 L1235.00,1499.00 L1250.00,1509.00 L1252.00,1503.00 L1259.00,1501.00 L1258.00,1497.00 L1282.00,1503.00 L1307.00,1503.00 L1318.00,1509.00 L1343.00,1509.00 L1380.00,1517.00 L1431.00,1517.00 L1437.00,1515.00 L1439.00,1509.00 L1439.00,1462.00 L1433.00,1425.00 L1437.00,1302.00 L1425.00,1314.00 L1387.00,1310.00 L1344.00,1310.00 L1330.00,1306.00 L1314.00,1296.00 L1303.00,1285.00 L1299.00,1271.00 L1299.00,712.00 L1303.00,686.00 L1311.00,670.00 L1332.00,655.00 L1344.00,651.00 L1411.00,649.00 L1423.00,655.00 L1438.00,675.00 L1451.00,669.00 L1453.00,410.00 L1436.00,408.00 L1433.00,402.00 L1441.00,400.00 Z M1111.00,1400.00 L1115.00,1399.00 L1118.00,1403.00 L1114.00,1404.00 L1111.00,1400.00 Z M1061.00,1374.00 L1071.00,1377.00 L1090.00,1399.00 L1103.00,1405.00 L1114.00,1415.00 L1125.00,1417.00 L1127.00,1412.00 L1131.00,1411.00 L1168.00,1437.00 L1224.00,1463.00 L1254.00,1473.00 L1294.00,1481.00 L1331.00,1481.00 L1350.00,1473.00 L1354.00,1475.00 L1345.00,1482.00 L1325.00,1490.00 L1278.00,1488.00 L1265.00,1482.00 L1254.00,1482.00 L1270.00,1491.00 L1287.00,1491.00 L1294.00,1496.00 L1293.00,1498.00 L1246.00,1492.00 L1210.00,1480.00 L1158.00,1454.00 L1114.00,1426.00 L1090.00,1406.00 L1061.00,1377.00 L1061.00,1374.00 Z M1023.00,1210.00 L1049.00,1199.00 L1068.00,1187.00 L1086.00,1183.00 L1115.00,1183.00 L1147.00,1195.00 L1170.00,1216.00 L1178.00,1229.00 L1186.00,1234.00 L1186.00,1247.00 L1198.00,1263.00 L1260.00,1325.00 L1296.00,1343.00 L1349.00,1353.00 L1370.00,1368.00 L1378.00,1380.00 L1374.00,1391.00 L1380.00,1408.00 L1378.00,1435.00 L1370.00,1453.00 L1353.00,1470.00 L1335.00,1478.00 L1298.00,1480.00 L1274.00,1476.00 L1208.00,1454.00 L1168.00,1434.00 L1126.00,1406.00 L1067.00,1353.00 L1025.00,1297.00 L1017.00,1269.00 L1019.00,1238.00 L1027.00,1223.00 L1023.00,1217.00 L1023.00,1210.00 Z M1094.00,1009.00 L1131.00,1007.00 L1149.00,1017.00 L1158.00,1032.00 L1155.00,1036.00 L1138.00,1040.00 L1133.00,1032.00 L1125.00,1028.00 L1106.00,1028.00 L1096.00,1034.00 L1090.00,1048.00 L1090.00,1071.00 L1094.00,1079.00 L1106.00,1089.00 L1127.00,1089.00 L1137.00,1081.00 L1137.00,1072.00 L1126.00,1072.00 L1115.00,1067.00 L1115.00,1056.00 L1118.00,1053.00 L1160.00,1054.00 L1160.00,1089.00 L1153.00,1098.00 L1137.00,1108.00 L1094.00,1108.00 L1078.00,1098.00 L1067.00,1081.00 L1067.00,1036.00 L1077.00,1020.00 L1094.00,1009.00 Z M964.00,1007.00 L986.00,1008.00 L988.00,1049.00 L1024.00,1009.00 L1051.00,1007.00 L1054.00,1010.00 L1020.00,1046.00 L1018.00,1053.00 L1056.00,1104.00 L1055.00,1108.00 L1030.00,1108.00 L1001.00,1068.00 L998.00,1068.00 L986.00,1082.00 L988.00,1105.00 L983.00,1110.00 L964.00,1108.00 L961.00,1105.00 L961.00,1010.00 L964.00,1007.00 Z M1110.00,847.00 L1127.00,847.00 L1145.00,853.00 L1160.00,868.00 L1168.00,890.00 L1168.00,935.00 L1162.00,953.00 L1147.00,970.00 L1125.00,978.00 L1104.00,976.00 L1086.00,966.00 L1075.00,951.00 L1069.00,925.00 L1071.00,886.00 L1077.00,870.00 L1090.00,855.00 L1110.00,847.00 Z M978.00,853.00 L996.00,847.00 L1015.00,847.00 L1033.00,853.00 L1044.00,862.00 L1050.00,874.00 L1048.00,903.00 L1044.00,911.00 L1000.00,951.00 L1051.00,951.00 L1054.00,956.00 L1054.00,973.00 L1051.00,976.00 L964.00,976.00 L961.00,973.00 L961.00,954.00 L1017.00,903.00 L1023.00,891.00 L1021.00,878.00 L1013.00,872.00 L996.00,872.00 L990.00,876.00 L983.00,890.00 L960.00,888.00 L959.00,882.00 L965.00,866.00 L978.00,853.00 Z M972.00,697.00 L986.00,733.00 L1006.00,754.00 L1007.00,762.00 L989.00,747.00 L981.00,735.00 L971.00,711.00 L972.00,697.00 Z M987.00,696.00 L992.00,698.00 L996.00,713.00 L1008.00,731.00 L1030.00,749.00 L1062.00,759.00 L1085.00,759.00 L1094.00,755.00 L1102.00,757.00 L1085.00,764.00 L1054.00,766.00 L1020.00,754.00 L995.00,729.00 L987.00,713.00 L987.00,696.00 Z M1398.00,522.00 L1392.00,536.00 L1390.00,551.00 L1380.00,567.00 L1333.00,608.00 L1309.00,622.00 L1222.00,648.00 L1208.00,658.00 L1179.00,690.00 L1171.00,689.00 L1189.00,660.00 L1212.00,637.00 L1240.00,621.00 L1285.00,609.00 L1339.00,585.00 L1375.00,555.00 L1387.00,537.00 L1391.00,518.00 L1398.00,522.00 Z M1372.00,452.00 L1388.00,488.00 L1390.00,515.00 L1384.00,537.00 L1376.00,551.00 L1347.00,578.00 L1309.00,598.00 L1248.00,616.00 L1216.00,632.00 L1188.00,658.00 L1144.00,721.00 L1123.00,742.00 L1109.00,750.00 L1081.00,758.00 L1052.00,756.00 L1028.00,746.00 L1005.00,725.00 L991.00,693.00 L991.00,672.00 L999.00,648.00 L1029.00,604.00 L1053.00,576.00 L1110.00,525.00 L1168.00,487.00 L1204.00,469.00 L1296.00,437.00 L1314.00,433.00 L1341.00,433.00 L1359.00,441.00 L1372.00,452.00 Z M1538.00,318.00 L1534.00,322.00 L1534.00,465.00 L1538.00,472.00 L1534.00,478.00 L1538.00,644.00 L1536.00,657.00 L1546.00,649.00 L1611.00,647.00 L1629.00,651.00 L1650.00,668.00 L1656.00,680.00 L1658.00,712.00 L1656.00,775.00 L1660.00,787.00 L1672.00,788.00 L1658.00,790.00 L1656.00,794.00 L1658.00,881.00 L1945.00,881.00 L1948.00,884.00 L1945.00,890.00 L1656.00,890.00 L1658.00,1005.00 L1675.00,1005.00 L1678.00,1008.00 L1673.00,1012.00 L1658.00,1012.00 L1660.00,1105.00 L1931.00,1103.00 L1936.00,1108.00 L1933.00,1112.00 L1658.00,1112.00 L1658.00,1185.00 L1662.00,1189.00 L1873.00,1189.00 L1881.00,1193.00 L1888.00,1202.00 L1890.00,1239.00 L1935.00,1239.00 L1940.00,1247.00 L1888.00,1248.00 L1890.00,1289.00 L1884.00,1299.00 L1875.00,1304.00 L1608.00,1304.00 L1606.00,1367.00 L1927.00,1367.00 L1932.00,1373.00 L1929.00,1376.00 L1606.00,1376.00 L1608.00,1473.00 L1831.00,1473.00 L1834.00,1477.00 L1831.00,1480.00 L1606.00,1480.00 L1606.00,1573.00 L1600.00,1584.00 L1600.00,1595.00 L1863.00,1595.00 L1913.00,1593.00 L1933.00,1589.00 L1957.00,1579.00 L1978.00,1561.00 L1993.00,1557.00 L2007.00,1541.00 L2015.00,1509.00 L2015.00,1362.00 L2007.00,1352.00 L1966.00,1350.00 L1963.00,1347.00 L1963.00,1340.00 L2005.00,1341.00 L2014.00,1345.00 L2083.00,1347.00 L2095.00,1341.00 L2107.00,1323.00 L2103.00,1292.00 L2100.00,1294.00 L2085.00,1286.00 L2012.00,1286.00 L1997.00,1290.00 L1972.00,1290.00 L1958.00,1300.00 L1954.00,1310.00 L1954.00,1321.00 L1949.00,1326.00 L1943.00,1323.00 L1943.00,1306.00 L1960.00,1283.00 L1972.00,1277.00 L2009.00,1277.00 L2015.00,1271.00 L2017.00,1251.00 L2015.00,1186.00 L2003.00,1178.00 L1970.00,1178.00 L1962.00,1174.00 L1943.00,1151.00 L1945.00,1130.00 L1954.00,1113.00 L1976.00,1101.00 L2005.00,1103.00 L2017.00,1095.00 L2017.00,810.00 L2007.00,798.00 L1976.00,798.00 L1964.00,794.00 L1959.00,787.00 L1959.00,780.00 L1974.00,787.00 L2007.00,787.00 L2018.00,793.00 L2085.00,793.00 L2101.00,781.00 L2107.00,769.00 L2107.00,754.00 L2103.00,746.00 L2089.00,734.00 L2012.00,732.00 L1976.00,734.00 L1966.00,738.00 L1954.00,754.00 L1954.00,771.00 L1958.00,777.00 L1954.00,778.00 L1945.00,771.00 L1945.00,750.00 L1949.00,742.00 L1964.00,727.00 L1974.00,723.00 L2011.00,723.00 L2017.00,717.00 L2015.00,634.00 L2009.00,628.00 L1970.00,626.00 L1961.00,619.00 L1959.00,610.00 L1963.00,609.00 L1972.00,617.00 L2009.00,617.00 L2016.00,621.00 L2081.00,623.00 L2091.00,619.00 L2103.00,607.00 L2107.00,597.00 L2107.00,584.00 L2104.00,580.00 L2104.00,597.00 L2101.00,600.00 L2094.00,598.00 L2087.00,604.00 L1960.00,604.00 L1955.00,599.00 L1955.00,582.00 L1964.00,569.00 L1976.00,563.00 L2087.00,563.00 L2095.00,567.00 L2103.00,577.00 L2095.00,566.00 L2087.00,562.00 L1974.00,562.00 L1958.00,574.00 L1954.00,582.00 L1954.00,599.00 L1948.00,598.00 L1945.00,595.00 L1947.00,574.00 L1958.00,559.00 L1969.00,555.00 L1969.00,520.00 L1957.00,496.00 L1945.00,484.00 L1925.00,476.00 L1595.00,475.00 L1597.00,338.00 L1603.00,335.00 L1606.00,338.00 L1606.00,465.00 L1929.00,467.00 L1951.00,477.00 L1970.00,496.00 L1978.00,518.00 L1980.00,549.00 L2009.00,551.00 L2017.00,545.00 L2017.00,422.00 L2013.00,404.00 L2001.00,376.00 L1989.00,358.00 L1967.00,338.00 L1949.00,328.00 L1911.00,318.00 L1608.00,318.00 L1599.00,328.00 L1591.00,318.00 L1538.00,318.00 Z M1883.00,1478.00 L1891.00,1475.00 L1898.00,1479.00 L1883.00,1478.00 Z M1872.00,1475.00 L1874.00,1479.00 L1870.00,1480.00 L1872.00,1475.00 Z M1917.00,1476.00 L1920.00,1473.00 L1933.00,1473.00 L1936.00,1477.00 L1933.00,1480.00 L1920.00,1480.00 L1917.00,1476.00 Z M1835.00,1476.00 L1838.00,1473.00 L1859.00,1477.00 L1862.00,1473.00 L1867.00,1473.00 L1870.00,1477.00 L1867.00,1480.00 L1838.00,1480.00 L1835.00,1476.00 Z M1955.00,1310.00 L1966.00,1295.00 L1976.00,1291.00 L2009.00,1291.00 L2016.00,1287.00 L2085.00,1287.00 L2095.00,1291.00 L2104.00,1302.00 L2106.00,1319.00 L2101.00,1326.00 L2094.00,1322.00 L2089.00,1328.00 L1978.00,1330.00 L1956.00,1328.00 L1955.00,1310.00 Z M1693.00,1006.00 L1725.00,1007.00 L1730.00,1003.00 L1943.00,1003.00 L1946.00,1009.00 L1941.00,1012.00 L1702.00,1012.00 L1694.00,1010.00 L1693.00,1006.00 Z M1673.00,894.00 L1686.00,891.00 L1939.00,891.00 L1944.00,895.00 L1937.00,898.00 L1690.00,898.00 L1673.00,894.00 Z M1707.00,788.00 L1710.00,783.00 L1757.00,783.00 L1758.00,787.00 L1772.00,783.00 L1831.00,783.00 L1831.00,786.00 L1820.00,787.00 L1833.00,787.00 L1834.00,783.00 L1869.00,783.00 L1868.00,787.00 L1874.00,783.00 L1918.00,784.00 L1917.00,790.00 L1707.00,788.00 Z M1955.00,754.00 L1966.00,739.00 L1976.00,735.00 L2081.00,733.00 L2093.00,737.00 L2102.00,746.00 L2106.00,754.00 L2106.00,767.00 L2101.00,772.00 L2094.00,770.00 L2087.00,776.00 L1960.00,776.00 L1955.00,769.00 L1955.00,754.00 Z M1657.00,654.00 L1884.00,655.00 L1875.00,658.00 L1662.00,658.00 L1657.00,654.00 Z M1639.00,654.00 L1645.00,653.00 L1648.00,657.00 L1642.00,658.00 L1639.00,654.00 Z M1645.00,648.00 L1649.00,645.00 L1652.00,649.00 L1645.00,648.00 Z M1537.00,480.00 L1554.00,477.00 L1921.00,477.00 L1943.00,485.00 L1956.00,498.00 L1966.00,525.00 L1963.00,525.00 L1953.00,502.00 L1929.00,486.00 L1606.00,486.00 L1538.00,484.00 L1537.00,480.00 Z M1605.00,322.00 L1921.00,321.00 L1947.00,329.00 L1973.00,345.00 L1998.00,374.00 L2008.00,399.00 L2006.00,400.00 L1999.00,392.00 L1992.00,394.00 L1981.00,378.00 L1966.00,378.00 L1961.00,373.00 L1965.00,360.00 L1959.00,354.00 L1952.00,352.00 L1945.00,360.00 L1922.00,356.00 L1913.00,351.00 L1913.00,338.00 L1907.00,344.00 L1878.00,342.00 L1877.00,338.00 L1869.00,336.00 L1636.00,336.00 L1621.00,340.00 L1612.00,336.00 L1610.00,350.00 L1605.00,322.00 Z M1538.00,321.00 L1569.00,319.00 L1593.00,321.00 L1596.00,324.00 L1596.00,435.00 L1593.00,452.00 L1589.00,336.00 L1538.00,336.00 L1538.00,321.00 Z M1368.00,310.00 L1294.00,320.00 L1232.00,336.00 L1188.00,352.00 L1118.00,386.00 L1099.00,400.00 L1082.00,408.00 L1026.00,450.00 L958.00,516.00 L948.00,531.00 L936.00,542.00 L926.00,559.00 L908.00,580.00 L868.00,646.00 L836.00,716.00 L824.00,757.00 L818.00,768.00 L816.00,783.00 L804.00,818.00 L794.00,878.00 L792.00,923.00 L788.00,944.00 L788.00,1007.00 L792.00,1030.00 L790.00,1043.00 L798.00,1095.00 L801.00,1083.00 L799.00,1062.00 L801.00,1052.00 L806.00,1052.00 L810.00,1089.00 L828.00,1167.00 L846.00,1219.00 L876.00,1282.00 L876.00,1287.00 L912.00,1347.00 L960.00,1411.00 L1010.00,1463.00 L1027.00,1475.00 L1042.00,1491.00 L1061.00,1503.00 L1076.00,1517.00 L1124.00,1547.00 L1178.00,1573.00 L1226.00,1589.00 L1264.00,1599.00 L1334.00,1611.00 L1443.00,1613.00 L1444.00,1605.00 L1451.00,1607.00 L1451.00,1604.00 L1443.00,1599.00 L1443.00,1582.00 L1451.00,1581.00 L1451.00,1558.00 L1455.00,1539.00 L1453.00,1530.00 L1396.00,1532.00 L1393.00,1540.00 L1360.00,1540.00 L1280.00,1530.00 L1204.00,1510.00 L1128.00,1474.00 L1058.00,1424.00 L1013.00,1379.00 L973.00,1329.00 L933.00,1265.00 L895.00,1179.00 L875.00,1107.00 L863.00,1021.00 L861.00,952.00 L871.00,864.00 L887.00,792.00 L884.00,790.00 L880.00,796.00 L874.00,825.00 L868.00,838.00 L858.00,904.00 L858.00,935.00 L854.00,950.00 L856.00,953.00 L851.00,964.00 L847.00,959.00 L849.00,906.00 L857.00,852.00 L871.00,792.00 L889.00,738.00 L935.00,642.00 L959.00,604.00 L991.00,562.00 L1040.00,511.00 L1092.00,469.00 L1150.00,433.00 L1196.00,411.00 L1250.00,391.00 L1316.00,375.00 L1380.00,367.00 L1451.00,367.00 L1455.00,353.00 L1453.00,312.00 L1368.00,310.00 Z M927.00,1288.00 L932.00,1290.00 L958.00,1333.00 L996.00,1379.00 L1001.00,1380.00 L991.00,1361.00 L993.00,1357.00 L1016.00,1385.00 L1066.00,1433.00 L1130.00,1477.00 L1202.00,1511.00 L1266.00,1529.00 L1352.00,1541.00 L1403.00,1541.00 L1412.00,1545.00 L1401.00,1548.00 L1336.00,1548.00 L1328.00,1550.00 L1329.00,1554.00 L1292.00,1552.00 L1210.00,1534.00 L1156.00,1512.00 L1082.00,1468.00 L1040.00,1434.00 L979.00,1371.00 L941.00,1317.00 L927.00,1288.00 Z M916.00,1265.00 L922.00,1272.00 L921.00,1276.00 L915.00,1269.00 L916.00,1265.00 Z M974.00,505.00 L976.00,509.00 L972.00,510.00 L974.00,505.00 Z M1448.00,314.00 L1447.00,324.00 L1346.00,328.00 L1290.00,338.00 L1226.00,356.00 L1195.00,370.00 L1184.00,372.00 L1132.00,398.00 L1072.00,436.00 L1038.00,464.00 L976.00,526.00 L936.00,576.00 L884.00,660.00 L860.00,710.00 L841.00,760.00 L839.00,759.00 L847.00,728.00 L853.00,719.00 L867.00,680.00 L883.00,651.00 L883.00,646.00 L925.00,576.00 L941.00,559.00 L949.00,544.00 L971.00,521.00 L977.00,510.00 L998.00,489.00 L1065.00,437.00 L1063.00,426.00 L1070.00,419.00 L1120.00,387.00 L1172.00,361.00 L1240.00,335.00 L1286.00,323.00 L1352.00,313.00 L1445.00,311.00 L1448.00,314.00 Z M1468.00,308.00 L1466.00,887.00 L1491.00,885.00 L1505.00,887.00 L1523.00,895.00 L1525.00,310.00 L1468.00,308.00 Z M1468.00,309.00 L1524.00,310.00 L1524.00,885.00 L1521.00,892.00 L1499.00,884.00 L1467.00,883.00 L1468.00,309.00 Z"/>
</g>
</svg>